<svg aria-hidden="true" style="position:absolute;width:0;height:0;overflow:hidden" xmlns="http://www.w3.org/2000/svg">
  <defs>
    <symbol id="icon-line" viewBox="0 0 5008 32">
      <path stroke-width="16" d="M0 16h5008"/>
    </symbol>
    <symbol id="icon-close" viewBox="0 0 32 32">
      <path fill="#055545" style="fill:var(--color1, #055545)" d="M32 3.721 28.279 0 16 12.279 3.721 0 0 3.721 12.279 16 0 28.279 3.721 32 16 19.721 28.279 32 32 28.279 19.721 16 32 3.721z"/>
    </symbol>
    <symbol id="icon-burger" viewBox="0 0 32 32">
      <path stroke-linejoin="round" stroke-linecap="round" stroke-width="2.857" d="M4 20h24M4 12h24"/>
    </symbol>
    <symbol id="icon-facebook" viewBox="0 0 32 32">
      <path d="M29.333 16.033C29.333 8.655 23.36 2.666 16 2.666S2.667 8.654 2.667 16.033c0 6.469 4.587 11.856 10.667 13.099v-9.089h-2.667v-4.01h2.667v-3.342a4.677 4.677 0 0 1 4.667-4.678h3.333v4.01h-2.667c-.733 0-1.333.601-1.333 1.337v2.673h4v4.01h-4v9.29c6.733-.668 12-6.363 12-13.3z"/>
    </symbol>
    <symbol id="icon-youtube" viewBox="0 0 32 32">
      <path d="m18.226 15.768-3.119-1.455c-.272-.126-.496.015-.496.317v2.742c0 .301.224.443.496.317l3.118-1.455c.274-.128.274-.336.001-.464zM16 2.667C8.636 2.667 2.667 8.636 2.667 16S8.636 29.333 16 29.333 29.333 23.364 29.333 16 23.364 2.667 16 2.667zm0 18.75c-6.825 0-6.944-.615-6.944-5.417s.119-5.417 6.944-5.417 6.944.615 6.944 5.417-.119 5.417-6.944 5.417z"/>
    </symbol>
    <symbol id="icon-instagram" viewBox="0 0 32 32">
      <path d="M21.179 4H9.487a6.829 6.829 0 0 0-6.821 6.821v11.692a6.829 6.829 0 0 0 6.821 6.821h11.692A6.829 6.829 0 0 0 28 22.513V10.821A6.829 6.829 0 0 0 21.179 4zm-5.846 18.513a5.849 5.849 0 0 1-5.401-3.609c-.442-1.068-.558-2.244-.333-3.378s.782-2.176 1.6-2.993a5.847 5.847 0 0 1 9.98 4.134 5.854 5.854 0 0 1-5.846 5.846zm7.308-11.693a1.465 1.465 0 0 1-1.35-.902c-.111-.267-.14-.561-.083-.844a1.468 1.468 0 0 1 1.148-1.148 1.469 1.469 0 0 1 1.5.621 1.457 1.457 0 0 1-.182 1.845 1.462 1.462 0 0 1-1.033.428zm-3.41 5.847a3.898 3.898 0 1 1-7.797-.002 3.898 3.898 0 0 1 7.797.002z"/>
    </symbol>
  </defs>
</svg>
